<svg xmlns="http://www.w3.org/2000/svg" xmlns:xlink="http://www.w3.org/1999/xlink" id="svg" version="1.1" width="400" height="383.5140997830802" viewBox="0, 0, 400,383.5140997830802">
<g id="svgg">
    <path id="path0" fill="#000" d="M199.040 5.418 C 192.036 5.809,186.850 6.331,182.342 7.100 C 180.336 7.442,177.745 7.867,176.583 8.045 C 172.599 8.655,162.032 11.088,159.885 11.891 C 159.023 12.213,157.508 12.670,154.127 13.628 C 152.860 13.987,151.478 14.420,151.056 14.590 C 150.633 14.761,149.424 15.108,148.369 15.362 C 147.313 15.616,145.499 16.169,144.338 16.590 C 143.177 17.012,141.708 17.439,141.075 17.540 C 140.441 17.641,139.379 17.967,138.714 18.266 C 138.048 18.565,137.361 18.810,137.185 18.810 C 136.741 18.810,132.928 20.296,131.154 21.161 C 130.342 21.557,129.467 21.881,129.210 21.881 C 128.953 21.881,127.847 22.313,126.753 22.841 C 125.659 23.369,124.593 23.800,124.383 23.800 C 124.174 23.800,122.128 24.750,119.837 25.912 C 117.546 27.073,115.485 28.023,115.257 28.023 C 115.030 28.023,114.786 28.153,114.715 28.311 C 114.645 28.469,113.637 29.075,112.476 29.658 C 111.315 30.241,109.674 31.151,108.829 31.680 C 107.985 32.210,106.892 32.813,106.401 33.022 C 105.910 33.230,104.756 33.918,103.837 34.550 C 102.917 35.183,102.040 35.701,101.886 35.701 C 101.733 35.701,101.042 36.132,100.350 36.660 C 99.658 37.188,98.907 37.620,98.682 37.620 C 98.457 37.620,98.273 37.755,98.273 37.921 C 98.273 38.087,97.711 38.550,97.025 38.950 C 96.339 39.351,95.173 40.136,94.434 40.694 C 93.695 41.253,90.758 43.456,87.908 45.591 C 85.058 47.725,82.258 49.915,81.687 50.456 C 81.115 50.997,80.549 51.440,80.429 51.440 C 79.560 51.440,61.531 69.607,58.541 73.494 C 57.908 74.318,57.209 75.177,56.988 75.404 C 56.766 75.630,56.051 76.593,55.397 77.543 C 54.743 78.493,53.758 79.689,53.208 80.201 C 52.658 80.713,52.207 81.295,52.207 81.494 C 52.207 81.693,51.732 82.440,51.152 83.152 C 50.571 83.865,49.621 85.034,49.040 85.751 C 48.460 86.467,47.985 87.219,47.985 87.421 C 47.985 87.623,47.553 88.290,47.025 88.904 C 46.498 89.517,46.066 90.208,46.066 90.440 C 46.065 90.671,45.720 91.173,45.298 91.555 C 44.875 91.937,44.530 92.397,44.530 92.578 C 44.530 92.758,43.963 93.725,43.271 94.726 C 42.579 95.726,41.689 97.280,41.293 98.179 C 40.896 99.077,40.356 99.992,40.091 100.212 C 39.669 100.562,31.508 116.775,30.729 118.810 C 30.568 119.232,30.065 120.328,29.613 121.245 C 29.161 122.163,28.791 123.210,28.791 123.573 C 28.791 123.935,28.457 124.924,28.048 125.770 C 27.639 126.615,27.188 127.772,27.046 128.340 C 26.903 128.909,26.633 129.469,26.445 129.585 C 26.257 129.701,26.104 130.207,26.104 130.710 C 26.104 131.213,25.931 131.731,25.720 131.862 C 25.509 131.992,25.336 132.494,25.336 132.977 C 25.336 133.460,25.086 134.357,24.780 134.970 C 24.241 136.051,23.144 139.702,22.773 141.651 C 22.673 142.179,22.442 142.956,22.259 143.378 C 21.847 144.330,20.403 150.008,19.915 152.591 C 19.716 153.647,19.380 155.374,19.169 156.430 C 17.981 162.364,17.275 167.817,16.137 179.846 C 15.628 185.231,15.622 197.843,16.127 203.071 C 16.905 211.142,17.767 218.309,18.365 221.689 C 18.590 222.956,18.952 225.037,19.171 226.314 C 19.390 227.591,19.917 229.994,20.341 231.654 C 20.766 233.314,21.113 235.078,21.113 235.575 C 21.113 236.072,21.269 236.779,21.460 237.145 C 21.650 237.512,22.008 238.589,22.254 239.539 C 22.500 240.489,23.058 242.303,23.494 243.570 C 23.930 244.837,24.370 246.350,24.472 246.934 C 24.573 247.517,24.809 248.088,24.996 248.204 C 25.183 248.319,25.336 248.825,25.336 249.328 C 25.336 249.831,25.509 250.349,25.720 250.480 C 25.931 250.610,26.104 251.047,26.104 251.449 C 26.104 251.852,26.349 252.749,26.649 253.442 C 26.949 254.135,27.573 255.739,28.037 257.006 C 28.500 258.273,29.205 260.041,29.603 260.936 C 30.001 261.831,30.326 262.740,30.326 262.954 C 30.326 263.169,30.754 264.165,31.276 265.166 C 33.061 268.586,34.933 272.679,34.933 273.160 C 34.933 273.424,35.078 273.698,35.255 273.768 C 35.432 273.839,36.423 275.537,37.458 277.543 C 38.493 279.549,39.428 281.276,39.535 281.382 C 39.817 281.658,40.630 282.981,41.069 283.877 C 41.275 284.299,41.970 285.509,42.612 286.564 C 43.255 287.620,43.989 288.916,44.243 289.443 C 44.498 289.971,44.820 290.489,44.960 290.595 C 45.100 290.701,46.556 292.774,48.195 295.202 C 50.911 299.223,54.008 303.549,54.517 304.031 C 54.628 304.136,55.579 305.259,56.630 306.526 C 65.874 317.669,75.173 327.045,83.284 333.397 C 84.952 334.703,87.432 336.733,89.264 338.292 C 89.946 338.872,90.603 339.347,90.723 339.347 C 90.940 339.347,94.776 342.022,97.457 344.043 C 98.222 344.620,99.107 345.208,99.424 345.349 C 99.741 345.491,100.320 345.882,100.711 346.220 C 101.102 346.557,102.237 347.265,103.234 347.793 C 105.335 348.905,107.075 349.948,108.776 351.115 C 110.495 352.294,125.305 359.693,125.950 359.694 C 126.246 359.695,127.053 360.041,127.744 360.462 C 128.436 360.884,129.300 361.228,129.665 361.228 C 130.030 361.228,131.575 361.833,133.099 362.572 C 134.622 363.311,136.123 363.916,136.433 363.916 C 136.744 363.916,137.106 364.088,137.236 364.299 C 137.367 364.511,137.885 364.683,138.388 364.683 C 138.891 364.683,139.409 364.856,139.539 365.067 C 139.670 365.278,140.201 365.451,140.719 365.451 C 141.237 365.451,141.961 365.603,142.328 365.788 C 144.091 366.679,145.970 367.370,146.631 367.370 C 147.034 367.370,147.470 367.543,147.601 367.754 C 147.731 367.965,148.519 368.138,149.351 368.138 C 150.183 368.138,150.864 368.311,150.864 368.522 C 150.864 368.733,151.182 368.906,151.570 368.906 C 151.959 368.906,153.643 369.272,155.313 369.719 C 156.983 370.166,158.868 370.610,159.501 370.705 C 160.134 370.800,160.998 371.030,161.420 371.215 C 161.843 371.401,162.965 371.637,163.916 371.739 C 164.866 371.842,167.111 372.198,168.906 372.532 C 179.043 374.415,181.733 374.636,197.697 374.895 C 209.481 375.087,222.598 374.448,223.944 373.616 C 224.147 373.490,225.623 373.245,227.224 373.071 C 228.825 372.897,231.041 372.579,232.150 372.366 C 233.258 372.152,234.986 371.818,235.988 371.624 C 236.991 371.429,238.762 371.116,239.923 370.928 C 241.084 370.739,242.412 370.380,242.873 370.129 C 243.334 369.879,244.157 369.674,244.702 369.674 C 245.246 369.674,245.992 369.518,246.358 369.327 C 246.725 369.137,247.759 368.791,248.656 368.559 C 254.064 367.163,256.773 366.296,257.370 365.771 C 257.571 365.595,258.184 365.451,258.733 365.451 C 259.282 365.451,259.895 365.313,260.096 365.145 C 260.297 364.976,261.411 364.527,262.572 364.146 C 263.733 363.765,265.416 363.125,266.311 362.725 C 267.206 362.324,268.164 361.996,268.441 361.996 C 268.718 361.996,269.108 361.850,269.309 361.672 C 269.510 361.494,270.883 360.869,272.361 360.283 C 279.466 357.466,289.163 352.599,293.093 349.876 C 293.725 349.439,294.846 348.787,295.585 348.429 C 296.324 348.070,298.484 346.701,300.385 345.386 C 307.796 340.259,310.409 338.399,311.537 337.453 C 312.182 336.911,313.290 336.036,313.999 335.509 C 315.509 334.385,317.299 332.898,321.728 329.088 C 326.552 324.939,327.710 323.992,327.960 323.992 C 328.629 323.992,338.228 313.626,339.485 311.546 C 339.877 310.896,340.873 309.674,341.697 308.829 C 343.184 307.306,347.556 301.624,348.451 300.051 C 348.707 299.601,349.441 298.628,350.081 297.889 C 350.722 297.150,351.246 296.414,351.247 296.253 C 351.247 296.093,351.852 295.101,352.591 294.050 C 353.330 292.999,353.935 291.991,353.935 291.810 C 353.935 291.629,354.280 291.169,354.702 290.787 C 355.125 290.405,355.470 289.886,355.470 289.635 C 355.470 289.383,355.824 288.769,356.257 288.270 C 356.689 287.771,357.559 286.283,358.189 284.963 C 358.819 283.643,359.501 282.460,359.705 282.334 C 359.910 282.208,360.077 281.790,360.077 281.406 C 360.077 281.022,360.324 280.503,360.627 280.251 C 361.216 279.762,363.483 275.608,364.618 272.937 C 365.531 270.786,366.740 268.024,367.605 266.111 C 368.110 264.997,368.522 263.923,368.522 263.725 C 368.522 263.372,369.099 261.959,370.481 258.925 C 370.866 258.081,371.633 255.921,372.186 254.127 C 372.739 252.332,373.350 250.564,373.544 250.197 C 373.738 249.831,373.896 249.193,373.896 248.780 C 373.896 248.368,374.050 247.935,374.238 247.819 C 374.426 247.703,374.666 247.045,374.773 246.357 C 374.879 245.669,375.260 244.155,375.620 242.994 C 375.979 241.833,376.354 240.365,376.454 239.731 C 376.554 239.098,376.786 238.234,376.970 237.812 C 377.153 237.390,377.388 236.440,377.492 235.701 C 377.595 234.962,377.847 233.666,378.051 232.821 C 379.015 228.835,379.698 225.249,380.061 222.265 C 380.279 220.470,380.625 217.706,380.829 216.123 C 382.167 205.743,382.551 188.809,381.635 180.614 C 381.352 178.081,380.987 174.233,380.825 172.063 C 380.554 168.435,380.312 167.353,379.870 167.795 C 379.690 167.975,380.185 174.240,380.811 179.698 C 381.755 187.930,380.675 207.261,378.552 220.154 C 378.214 222.203,377.922 223.664,376.515 230.326 C 376.314 231.276,376.057 232.703,375.942 233.496 C 375.828 234.289,375.580 235.033,375.391 235.150 C 375.202 235.267,375.048 235.677,375.048 236.063 C 375.048 236.759,374.101 240.177,373.500 241.651 C 373.195 242.398,372.926 243.514,372.481 245.873 C 372.362 246.507,372.143 247.198,371.994 247.409 C 371.845 247.620,371.237 249.175,370.644 250.864 C 370.051 252.553,369.417 254.099,369.236 254.299 C 369.054 254.500,368.906 255.055,368.906 255.533 C 368.906 256.012,368.474 257.176,367.946 258.122 C 367.418 259.067,366.987 260.076,366.987 260.365 C 366.987 260.653,366.382 262.088,365.644 263.554 C 364.906 265.020,364.301 266.521,364.301 266.891 C 364.300 267.260,364.127 267.562,363.916 267.562 C 363.704 267.562,363.532 267.795,363.532 268.079 C 363.532 268.626,362.818 270.068,361.605 271.977 C 361.202 272.610,360.082 274.721,359.115 276.667 C 358.148 278.613,357.182 280.313,356.968 280.446 C 356.754 280.578,356.169 281.582,355.668 282.677 C 355.167 283.773,354.399 284.992,353.962 285.388 C 353.525 285.784,353.167 286.313,353.167 286.564 C 353.167 286.816,352.821 287.334,352.399 287.716 C 351.977 288.098,351.631 288.568,351.631 288.761 C 351.631 288.953,351.200 289.677,350.672 290.369 C 350.144 291.061,349.712 291.800,349.712 292.011 C 349.712 292.223,349.367 292.708,348.944 293.090 C 348.522 293.472,348.175 293.974,348.173 294.205 C 348.171 294.437,347.567 295.262,346.830 296.040 C 346.093 296.817,345.489 297.574,345.489 297.721 C 345.489 297.867,344.885 298.657,344.146 299.475 C 343.407 300.293,342.802 301.221,342.802 301.537 C 342.802 301.853,342.645 302.111,342.453 302.111 C 342.261 302.111,341.039 303.450,339.738 305.086 C 334.951 311.108,319.398 326.357,312.729 331.567 C 310.373 333.407,308.251 335.099,308.014 335.327 C 307.556 335.766,299.101 341.577,297.977 342.226 C 297.612 342.436,296.795 342.963,296.161 343.397 C 294.168 344.763,292.106 345.873,291.565 345.873 C 291.278 345.873,290.985 346.003,290.915 346.161 C 290.601 346.869,274.935 355.086,273.901 355.086 C 273.766 355.086,272.711 355.518,271.557 356.046 C 270.403 356.574,269.286 357.006,269.074 357.006 C 268.862 357.006,267.836 357.438,266.795 357.965 C 265.753 358.493,264.560 358.925,264.143 358.925 C 263.726 358.925,263.278 359.098,263.148 359.309 C 263.017 359.520,262.573 359.693,262.160 359.693 C 261.748 359.693,261.110 359.842,260.743 360.025 C 259.920 360.436,257.773 361.191,256.238 361.610 C 255.605 361.783,253.618 362.395,251.823 362.969 C 248.657 363.982,246.398 364.447,242.418 364.904 C 241.363 365.026,240.240 365.229,239.923 365.357 C 238.792 365.813,233.560 366.627,231.947 366.599 C 229.926 366.564,229.356 366.856,229.979 367.607 C 230.523 368.262,228.981 368.301,226.104 367.703 C 225.046 367.484,223.558 367.481,222.265 367.697 L 220.154 368.048 223.129 368.093 C 227.849 368.165,227.005 369.079,221.881 369.445 C 204.610 370.678,184.217 370.350,175.816 368.704 C 175.077 368.559,172.572 368.102,170.250 367.688 C 164.739 366.705,161.391 365.977,157.198 364.849 C 155.931 364.509,154.246 364.141,153.452 364.032 C 152.659 363.923,151.915 363.680,151.798 363.491 C 151.682 363.302,151.199 363.148,150.726 363.148 C 150.253 363.148,149.702 362.997,149.501 362.813 C 149.300 362.629,148.100 362.183,146.833 361.822 C 145.566 361.460,144.230 361.006,143.863 360.813 C 143.497 360.619,142.859 360.461,142.446 360.461 C 142.034 360.461,141.589 360.288,141.459 360.077 C 141.328 359.866,140.919 359.693,140.548 359.693 C 140.178 359.693,138.980 359.261,137.886 358.733 C 136.791 358.205,135.714 357.774,135.492 357.774 C 135.270 357.774,134.373 357.428,133.499 357.006 C 132.625 356.583,131.718 356.238,131.484 356.238 C 131.034 356.238,115.476 348.512,114.674 347.890 C 114.415 347.690,113.426 347.111,112.476 346.604 C 111.526 346.096,109.930 345.120,108.929 344.434 C 107.928 343.748,107.025 343.186,106.921 343.186 C 106.712 343.186,103.621 341.168,99.577 338.391 C 97.779 337.157,93.920 334.236,93.114 333.501 C 92.705 333.127,92.175 332.821,91.938 332.821 C 91.701 332.821,90.999 332.281,90.379 331.620 C 89.759 330.960,88.573 329.920,87.743 329.309 C 82.588 325.514,69.240 312.078,64.136 305.546 C 63.072 304.185,61.874 302.726,61.473 302.303 C 61.072 301.881,60.078 300.585,59.264 299.424 C 58.449 298.263,57.649 297.140,57.486 296.929 C 55.463 294.316,54.603 293.069,52.391 289.538 C 50.970 287.269,49.448 284.897,49.010 284.267 C 48.571 283.637,47.815 282.341,47.329 281.388 C 46.398 279.559,45.624 278.246,45.287 277.927 C 44.916 277.574,38.772 265.054,38.772 264.650 C 38.772 264.431,38.426 263.537,38.004 262.663 C 37.582 261.789,37.236 260.887,37.236 260.658 C 37.236 260.430,36.804 259.391,36.276 258.349 C 35.749 257.308,35.317 256.207,35.317 255.903 C 35.317 255.599,34.987 254.687,34.584 253.875 C 34.182 253.063,33.556 251.363,33.194 250.096 C 32.832 248.829,32.055 246.324,31.466 244.530 C 29.462 238.422,28.232 233.432,26.496 224.376 C 23.574 209.130,22.861 185.505,24.892 171.209 C 25.087 169.837,25.442 167.159,25.681 165.259 C 25.920 163.359,26.216 161.545,26.338 161.228 C 26.460 160.912,26.723 159.702,26.923 158.541 C 27.776 153.572,29.258 147.250,29.936 145.681 C 30.285 144.876,30.625 143.455,30.972 141.359 C 31.086 140.671,31.333 140.013,31.520 139.897 C 31.708 139.781,31.862 139.370,31.862 138.985 C 31.862 138.599,32.120 137.789,32.435 137.184 C 32.751 136.579,33.010 135.792,33.011 135.435 C 33.012 135.078,33.186 134.679,33.397 134.549 C 33.608 134.418,33.781 133.900,33.781 133.397 C 33.781 132.894,33.954 132.376,34.165 132.246 C 34.376 132.115,34.549 131.613,34.549 131.130 C 34.549 130.180,35.526 127.984,36.109 127.624 C 36.307 127.502,36.468 126.894,36.468 126.273 C 36.468 125.652,36.641 125.144,36.852 125.144 C 37.063 125.144,37.236 124.825,37.236 124.436 C 37.236 124.046,37.582 123.415,38.004 123.033 C 38.439 122.639,38.772 122.530,38.772 122.781 C 38.772 123.025,38.599 123.225,38.388 123.225 C 38.177 123.225,38.004 123.819,38.004 124.545 C 38.004 125.272,37.831 125.973,37.620 126.104 C 37.409 126.234,37.236 126.839,37.236 127.447 C 37.236 128.056,37.063 128.660,36.852 128.791 C 36.641 128.921,36.468 129.440,36.468 129.942 C 36.468 130.445,36.296 130.964,36.084 131.094 C 35.873 131.225,35.701 131.839,35.701 132.460 C 35.701 133.081,35.528 133.589,35.317 133.589 C 35.106 133.589,34.933 133.937,34.933 134.362 C 34.933 134.787,34.571 136.385,34.129 137.913 C 33.096 141.481,32.655 143.303,32.247 145.681 C 32.066 146.737,31.720 148.464,31.478 149.520 C 30.130 155.412,29.809 157.385,28.795 166.027 C 26.663 184.199,27.384 207.057,30.526 220.921 C 30.861 222.399,31.288 224.559,31.476 225.720 C 31.663 226.881,32.163 229.127,32.587 230.710 C 33.011 232.294,33.554 234.367,33.794 235.317 C 34.034 236.267,34.379 237.390,34.561 237.812 C 34.742 238.234,35.103 239.616,35.363 240.883 C 35.623 242.150,36.064 243.527,36.344 243.943 C 36.623 244.360,36.852 245.084,36.852 245.552 C 36.852 246.021,37.025 246.511,37.236 246.641 C 37.447 246.772,37.620 247.197,37.620 247.587 C 37.620 247.977,37.943 248.960,38.338 249.772 C 38.733 250.583,39.354 252.198,39.716 253.359 C 40.079 254.520,40.900 256.593,41.540 257.965 C 42.180 259.338,42.849 260.806,43.026 261.228 C 44.032 263.631,47.750 271.106,48.755 272.745 C 49.402 273.800,50.185 275.182,50.494 275.816 C 50.802 276.449,51.486 277.658,52.012 278.503 C 52.539 279.347,53.273 280.643,53.644 281.382 C 54.015 282.121,54.448 282.783,54.607 282.853 C 54.765 282.924,54.894 283.128,54.894 283.307 C 54.894 283.593,60.479 292.076,61.342 293.100 C 61.525 293.317,62.003 294.008,62.406 294.636 C 62.808 295.264,63.313 295.966,63.527 296.196 C 63.741 296.427,64.347 297.191,64.875 297.895 C 68.853 303.197,74.863 310.089,79.463 314.623 C 86.810 321.868,89.786 324.636,90.770 325.144 C 91.384 325.461,92.670 326.555,93.628 327.577 C 94.586 328.598,95.807 329.666,96.341 329.951 C 96.876 330.235,97.780 330.911,98.352 331.453 C 98.923 331.994,99.544 332.438,99.732 332.438 C 99.919 332.438,100.402 332.801,100.803 333.245 C 101.205 333.689,102.052 334.319,102.686 334.645 C 103.320 334.972,104.064 335.559,104.340 335.950 C 104.616 336.341,105.078 336.660,105.367 336.660 C 105.655 336.660,106.404 337.092,107.032 337.620 C 107.659 338.148,108.431 338.580,108.748 338.580 C 109.064 338.580,109.423 338.840,109.545 339.159 C 109.667 339.477,110.247 339.950,110.834 340.209 C 111.420 340.467,112.126 340.984,112.402 341.357 C 112.678 341.730,113.239 342.035,113.649 342.035 C 114.060 342.035,114.395 342.207,114.395 342.418 C 114.395 342.630,114.614 342.802,114.880 342.802 C 115.147 342.802,116.227 343.379,117.280 344.083 C 118.332 344.787,119.928 345.684,120.825 346.076 C 121.723 346.468,122.457 346.928,122.457 347.099 C 122.457 347.269,122.792 347.409,123.202 347.409 C 123.612 347.409,124.054 347.582,124.184 347.793 C 124.315 348.004,124.757 348.177,125.167 348.177 C 125.576 348.177,125.912 348.341,125.912 348.542 C 125.912 348.744,126.560 349.192,127.351 349.538 C 128.143 349.884,129.455 350.497,130.267 350.900 C 131.078 351.302,131.971 351.631,132.250 351.631 C 132.529 351.631,132.815 351.761,132.885 351.919 C 133.113 352.431,137.220 354.319,138.105 354.319 C 138.577 354.319,138.964 354.451,138.964 354.612 C 138.964 354.944,141.787 356.237,142.517 356.239 C 142.779 356.240,143.560 356.586,144.251 357.007 C 144.942 357.429,145.925 357.774,146.436 357.774 C 146.946 357.774,147.470 357.946,147.601 358.157 C 147.731 358.369,148.346 358.541,148.967 358.541 C 149.588 358.541,150.096 358.714,150.096 358.925 C 150.096 359.136,150.420 359.309,150.817 359.309 C 151.461 359.309,153.042 359.849,155.278 360.833 C 156.262 361.265,157.941 361.631,159.885 361.836 C 161.276 361.982,161.330 361.957,160.461 361.567 C 158.154 360.532,157.266 360.278,154.319 359.808 C 153.580 359.690,152.889 359.477,152.783 359.334 C 152.678 359.191,151.123 358.588,149.328 357.993 C 147.534 357.398,145.901 356.760,145.701 356.575 C 145.500 356.389,144.852 356.238,144.261 356.238 C 143.670 356.238,143.186 356.106,143.186 355.945 C 143.186 355.662,140.408 354.319,139.823 354.319 C 139.666 354.319,138.290 353.714,136.767 352.975 C 135.244 352.236,133.743 351.631,133.432 351.631 C 133.121 351.631,132.760 351.459,132.630 351.248 C 132.499 351.036,132.057 350.864,131.647 350.864 C 131.237 350.864,130.902 350.691,130.902 350.480 C 130.902 350.269,130.557 350.096,130.134 350.096 C 129.712 350.096,129.367 349.923,129.367 349.712 C 129.367 349.501,129.153 349.328,128.893 349.328 C 128.290 349.328,124.227 347.313,124.056 346.929 C 123.986 346.771,123.616 346.641,123.234 346.641 C 122.852 346.641,122.450 346.410,122.342 346.128 C 122.141 345.603,117.611 343.186,116.829 343.186 C 116.592 343.186,116.313 342.970,116.209 342.706 C 116.106 342.442,115.069 341.747,113.904 341.162 C 112.740 340.576,111.575 339.842,111.317 339.530 C 111.058 339.218,110.639 338.964,110.385 338.964 C 110.131 338.964,109.517 338.532,109.021 338.004 C 108.525 337.476,107.846 337.044,107.511 337.044 C 107.176 337.044,106.687 336.699,106.423 336.276 C 106.159 335.854,105.708 335.509,105.419 335.509 C 105.131 335.509,104.235 334.904,103.428 334.165 C 102.621 333.426,101.731 332.821,101.449 332.821 C 101.167 332.821,100.405 332.217,99.757 331.478 C 99.108 330.739,98.364 330.134,98.103 330.134 C 97.843 330.134,96.755 329.314,95.686 328.311 C 94.616 327.308,92.403 325.365,90.767 323.992 C 85.191 319.314,80.469 314.770,76.775 310.528 C 75.614 309.194,73.800 307.126,72.745 305.931 C 70.193 303.043,67.998 300.378,66.730 298.628 C 66.160 297.841,65.497 297.076,65.256 296.927 C 65.016 296.779,64.035 295.434,63.078 293.940 C 62.120 292.446,61.139 291.002,60.899 290.731 C 60.024 289.746,59.628 289.211,58.102 286.948 C 57.247 285.681,56.113 283.868,55.583 282.917 C 55.052 281.967,54.253 280.585,53.807 279.846 C 53.361 279.107,52.708 277.985,52.356 277.351 C 52.004 276.718,51.610 276.113,51.479 276.008 C 50.984 275.607,44.157 262.232,44.150 261.649 C 44.146 261.304,42.529 257.606,41.828 256.339 C 41.625 255.973,41.459 255.335,41.459 254.922 C 41.459 254.510,41.286 254.065,41.075 253.935 C 40.864 253.804,40.691 253.382,40.691 252.996 C 40.691 252.611,40.433 251.800,40.118 251.196 C 39.802 250.591,39.543 249.804,39.542 249.447 C 39.540 249.090,39.367 248.691,39.155 248.560 C 38.944 248.430,38.772 247.825,38.772 247.217 C 38.772 246.608,38.599 246.004,38.388 245.873 C 38.177 245.743,38.004 245.249,38.004 244.776 C 38.004 244.303,37.853 243.751,37.668 243.551 C 37.251 243.097,35.317 236.855,35.317 235.962 C 35.317 235.601,35.152 235.006,34.951 234.640 C 34.458 233.741,32.630 225.730,32.630 224.468 C 32.630 223.915,32.457 223.355,32.246 223.225 C 32.035 223.094,31.862 222.144,31.862 221.113 C 31.862 220.083,31.689 219.132,31.478 219.002 C 31.267 218.871,31.094 218.224,31.094 217.563 C 31.094 216.902,30.927 215.401,30.723 214.227 C 29.206 205.487,29.019 202.531,29.053 187.716 C 29.075 178.408,29.253 171.942,29.535 170.250 C 29.781 168.772,30.140 166.267,30.333 164.683 C 31.304 156.689,32.702 148.971,33.410 147.702 C 33.614 147.335,33.781 146.439,33.781 145.709 C 33.781 144.980,33.954 144.276,34.165 144.146 C 34.376 144.015,34.549 143.398,34.549 142.774 C 34.549 142.151,34.705 141.340,34.897 140.974 C 35.088 140.607,35.536 139.184,35.893 137.812 C 36.249 136.440,36.697 135.017,36.888 134.650 C 37.080 134.284,37.236 133.646,37.236 133.233 C 37.236 132.821,37.409 132.376,37.620 132.246 C 37.831 132.115,38.004 131.535,38.004 130.956 C 38.004 130.378,38.152 129.740,38.334 129.539 C 38.515 129.339,39.155 127.793,39.757 126.104 C 40.359 124.415,41.073 122.601,41.344 122.073 C 41.616 121.545,41.842 120.854,41.847 120.537 C 41.852 120.221,42.372 119.027,43.001 117.885 C 43.631 116.743,44.146 115.533,44.146 115.197 C 44.146 114.426,51.031 100.640,52.086 99.299 C 52.517 98.752,53.099 97.735,53.379 97.041 C 53.660 96.346,54.114 95.640,54.389 95.472 C 54.663 95.304,55.251 94.323,55.694 93.292 C 56.138 92.261,56.830 91.119,57.233 90.755 C 57.636 90.390,57.965 89.928,57.965 89.727 C 57.965 89.526,58.397 88.849,58.925 88.222 C 59.453 87.594,59.885 86.873,59.885 86.620 C 59.885 86.366,60.230 85.909,60.653 85.605 C 61.075 85.300,61.420 84.861,61.420 84.629 C 61.420 84.397,62.025 83.501,62.764 82.638 C 63.503 81.774,64.107 80.944,64.107 80.792 C 64.107 80.640,64.669 79.877,65.355 79.097 C 66.041 78.317,67.553 76.416,68.714 74.872 C 74.394 67.320,90.348 52.803,100.576 45.880 C 108.221 40.706,110.495 39.214,112.161 38.284 C 115.398 36.477,115.740 36.276,116.315 35.836 C 117.115 35.223,130.408 28.643,132.054 28.045 C 132.793 27.777,134.198 27.143,135.177 26.638 C 136.155 26.133,137.230 25.720,137.564 25.720 C 137.899 25.720,138.788 25.374,139.539 24.952 C 140.291 24.530,141.236 24.184,141.640 24.184 C 142.043 24.184,142.468 24.031,142.583 23.845 C 142.698 23.658,143.270 23.418,143.853 23.313 C 144.993 23.106,147.184 22.370,148.267 21.830 C 148.634 21.647,149.198 21.497,149.520 21.497 C 149.843 21.497,150.406 21.341,150.773 21.151 C 151.140 20.960,152.217 20.604,153.167 20.359 C 154.117 20.115,155.413 19.737,156.046 19.520 C 157.721 18.947,159.670 18.413,161.420 18.047 C 162.265 17.870,163.820 17.545,164.875 17.324 C 165.931 17.103,168.004 16.648,169.482 16.314 C 186.547 12.458,214.854 12.123,234.549 15.544 C 236.555 15.893,238.714 16.264,239.347 16.368 C 239.981 16.473,240.845 16.709,241.267 16.893 C 241.689 17.077,242.639 17.307,243.378 17.405 C 246.037 17.756,252.872 19.470,255.086 20.340 C 255.509 20.506,256.545 20.832,257.390 21.065 C 261.201 22.114,263.266 22.783,264.775 23.457 C 265.670 23.857,266.629 24.184,266.906 24.184 C 267.182 24.184,267.573 24.325,267.774 24.496 C 267.974 24.667,269.866 25.463,271.977 26.265 C 276.972 28.161,292.176 35.661,292.824 36.549 C 293.100 36.927,293.577 37.236,293.885 37.236 C 294.501 37.236,295.764 37.882,296.889 38.772 C 297.536 39.283,297.597 39.283,297.435 38.772 C 297.334 38.455,296.871 38.004,296.404 37.769 C 295.938 37.535,295.163 36.973,294.683 36.522 C 294.202 36.070,293.536 35.701,293.203 35.701 C 292.869 35.701,292.508 35.470,292.400 35.187 C 292.291 34.905,291.020 34.098,289.575 33.394 C 288.130 32.690,286.674 31.883,286.339 31.602 C 285.529 30.919,274.479 25.336,273.937 25.335 C 273.704 25.334,271.965 24.557,270.075 23.608 C 268.184 22.658,266.361 21.881,266.025 21.881 C 265.688 21.881,265.249 21.730,265.048 21.546 C 264.847 21.362,263.647 20.915,262.380 20.551 C 261.113 20.188,259.413 19.561,258.601 19.158 C 257.789 18.756,256.902 18.426,256.629 18.426 C 256.357 18.426,255.639 18.168,255.034 17.853 C 254.430 17.537,253.643 17.278,253.286 17.277 C 252.929 17.276,252.542 17.121,252.425 16.933 C 252.309 16.745,251.651 16.498,250.963 16.385 C 249.194 16.092,247.506 15.713,246.833 15.459 C 245.477 14.945,239.235 13.330,238.004 13.174 C 237.265 13.081,236.315 12.851,235.893 12.664 C 235.470 12.477,234.347 12.248,233.397 12.156 C 232.447 12.063,230.461 11.711,228.983 11.372 C 223.977 10.226,215.796 9.411,205.182 9.001 C 198.363 8.737,196.088 8.380,198.086 7.886 C 199.619 7.506,223.259 7.923,227.255 8.400 C 229.261 8.639,232.630 9.099,234.741 9.422 C 236.852 9.745,239.616 10.161,240.883 10.347 C 242.150 10.533,243.877 10.861,244.722 11.076 C 246.489 11.525,254.146 13.318,255.854 13.682 C 256.488 13.817,257.179 14.057,257.390 14.215 C 257.601 14.373,259.069 14.806,260.653 15.176 C 262.236 15.547,263.696 15.998,263.896 16.179 C 264.097 16.359,264.648 16.507,265.121 16.507 C 265.594 16.507,266.067 16.645,266.172 16.815 C 266.276 16.984,267.248 17.364,268.330 17.658 C 269.413 17.953,270.384 18.333,270.488 18.502 C 270.593 18.671,270.971 18.811,271.328 18.812 C 271.685 18.814,272.472 19.073,273.077 19.388 C 273.681 19.704,274.410 19.962,274.696 19.962 C 274.982 19.962,275.783 20.276,276.476 20.660 C 277.168 21.044,279.463 22.004,281.574 22.793 C 283.685 23.582,285.672 24.391,285.988 24.591 C 286.305 24.790,286.910 25.109,287.332 25.298 C 287.754 25.488,288.755 26.092,289.556 26.641 C 290.358 27.190,291.161 27.639,291.343 27.639 C 291.524 27.639,292.683 28.207,293.917 28.901 C 295.151 29.595,296.968 30.540,297.954 31.000 C 298.941 31.461,299.858 32.016,299.993 32.234 C 300.128 32.453,300.977 32.968,301.880 33.379 C 302.783 33.791,303.743 34.395,304.015 34.722 C 304.286 35.049,304.672 35.317,304.871 35.317 C 305.070 35.317,305.783 35.706,306.456 36.181 C 307.128 36.657,307.956 37.218,308.295 37.429 C 309.534 38.196,311.189 39.380,313.790 41.357 C 315.252 42.469,316.658 43.378,316.916 43.378 C 317.174 43.378,317.482 43.633,317.602 43.944 C 317.721 44.256,318.923 45.335,320.273 46.344 C 326.717 51.155,341.098 64.923,347.082 72.008 C 351.482 77.217,359.456 88.064,361.612 91.773 C 363.307 94.688,364.500 96.687,365.262 97.889 C 367.812 101.911,375.048 116.524,375.048 117.651 C 375.048 117.957,375.456 118.947,375.955 119.852 C 376.455 120.757,377.080 122.188,377.345 123.033 C 377.611 123.877,377.980 124.732,378.165 124.933 C 378.351 125.133,378.503 125.611,378.503 125.994 C 378.503 126.377,378.660 126.990,378.851 127.356 C 379.043 127.723,379.464 128.887,379.787 129.942 C 380.109 130.998,380.583 132.466,380.840 133.205 C 381.096 133.944,381.396 134.808,381.506 135.125 C 381.615 135.441,382.026 136.910,382.419 138.388 C 382.812 139.866,383.399 142.025,383.724 143.186 C 384.049 144.347,384.401 145.816,384.506 146.449 C 384.611 147.083,384.846 147.946,385.029 148.369 C 385.355 149.123,385.475 149.705,386.177 153.935 C 386.370 155.096,386.809 157.601,387.153 159.501 C 388.812 168.665,389.865 186.060,389.303 195.010 C 389.058 198.916,388.883 203.321,388.914 204.798 L 388.970 207.486 389.293 204.415 C 389.470 202.726,389.794 199.616,390.012 197.505 C 390.519 192.585,390.519 180.253,390.011 175.048 C 388.603 160.611,387.984 156.199,386.349 148.944 C 385.802 146.516,385.270 143.925,385.168 143.186 C 385.065 142.447,384.843 141.497,384.674 141.075 C 384.029 139.460,383.493 137.536,383.491 136.825 C 383.490 136.418,383.230 135.590,382.915 134.985 C 382.600 134.380,382.342 133.570,382.342 133.184 C 382.342 132.798,382.169 132.376,381.958 132.246 C 381.747 132.115,381.574 131.511,381.574 130.902 C 381.574 130.294,381.401 129.689,381.190 129.559 C 380.979 129.428,380.806 128.910,380.806 128.407 C 380.806 127.904,380.633 127.386,380.422 127.255 C 380.211 127.125,380.038 126.666,380.038 126.236 C 380.038 125.806,379.801 124.996,379.512 124.435 C 379.222 123.875,378.778 122.726,378.526 121.881 C 378.026 120.205,377.818 119.679,376.618 117.057 C 376.177 116.093,375.816 115.167,375.816 114.998 C 375.816 114.665,372.456 107.489,371.131 104.990 C 370.683 104.146,369.572 102.010,368.662 100.244 C 367.752 98.478,366.853 96.837,366.665 96.597 C 366.367 96.219,365.840 95.306,363.753 91.555 C 362.405 89.130,358.104 82.754,357.711 82.598 C 357.534 82.527,357.390 82.264,357.390 82.013 C 357.390 81.762,356.854 80.907,356.199 80.112 C 355.125 78.809,353.615 76.825,351.440 73.857 C 351.017 73.281,350.497 72.623,350.284 72.393 C 350.070 72.164,349.040 70.940,347.994 69.674 C 344.171 65.043,330.138 50.954,327.178 48.773 C 326.376 48.183,325.212 47.159,324.592 46.499 C 323.972 45.838,323.281 45.290,323.057 45.280 C 322.832 45.270,321.871 44.495,320.921 43.556 C 319.971 42.617,318.925 41.847,318.597 41.846 C 318.269 41.844,317.415 41.238,316.699 40.499 C 315.982 39.760,315.198 39.155,314.955 39.155 C 314.713 39.155,314.202 38.810,313.820 38.388 C 313.437 37.965,312.923 37.620,312.675 37.620 C 312.428 37.620,311.820 37.188,311.324 36.660 C 310.829 36.132,310.221 35.701,309.973 35.701 C 309.726 35.701,309.211 35.355,308.829 34.933 C 308.447 34.511,307.915 34.165,307.648 34.165 C 307.380 34.165,306.672 33.765,306.076 33.277 C 305.479 32.788,304.350 32.093,303.567 31.731 C 302.784 31.369,302.034 30.896,301.900 30.678 C 301.765 30.461,300.765 29.850,299.676 29.320 C 297.123 28.077,296.131 27.510,295.300 26.815 C 294.474 26.125,285.561 21.722,283.471 20.972 C 282.639 20.673,280.835 19.918,279.463 19.292 C 278.090 18.667,275.845 17.758,274.472 17.271 C 273.100 16.785,271.813 16.242,271.612 16.063 C 271.412 15.885,270.885 15.739,270.441 15.739 C 269.998 15.739,269.471 15.591,269.271 15.411 C 269.070 15.231,267.351 14.611,265.451 14.033 C 263.551 13.456,261.696 12.826,261.330 12.634 C 260.963 12.441,260.091 12.284,259.391 12.284 C 258.691 12.284,257.954 12.119,257.752 11.917 C 257.430 11.595,255.750 11.121,249.328 9.538 C 248.484 9.330,246.929 9.007,245.873 8.820 C 244.818 8.634,243.004 8.311,241.843 8.104 C 226.932 5.445,213.582 4.607,199.040 5.418 M298.848 39.923 C 299.231 40.345,299.716 40.691,299.927 40.691 C 300.138 40.691,299.998 40.345,299.616 39.923 C 299.234 39.501,298.749 39.155,298.537 39.155 C 298.326 39.155,298.466 39.501,298.848 39.923 M203.706 82.468 C 203.224 83.001,203.071 83.927,203.071 86.307 L 203.071 89.443 185.701 89.449 C 175.434 89.453,168.095 89.604,167.754 89.819 C 167.265 90.128,167.150 92.356,166.987 104.688 L 166.795 119.194 161.292 119.386 C 153.896 119.644,154.702 116.814,154.702 142.509 L 154.702 163.950 155.645 164.893 L 156.587 165.835 202.687 165.835 L 248.787 165.835 249.730 164.893 L 250.672 163.950 250.672 149.009 C 250.672 131.034,251.689 133.054,242.553 132.893 L 235.701 132.773 235.701 107.889 L 235.701 83.006 234.754 82.386 C 233.217 81.379,204.624 81.454,203.706 82.468 M211.812 93.177 C 211.942 103.945,211.974 103.992,216.342 99.757 L 219.213 96.972 221.411 99.076 C 226.424 103.877,226.243 104.086,226.488 93.201 L 226.679 84.645 229.846 84.533 L 233.013 84.422 233.013 108.191 C 233.013 127.835,232.922 132.035,232.488 132.396 C 232.113 132.707,228.185 132.803,218.765 132.731 L 205.566 132.630 205.467 109.021 C 205.412 96.036,205.453 85.189,205.557 84.917 C 205.695 84.556,206.560 84.451,208.727 84.533 L 211.708 84.645 211.812 93.177 M223.800 86.372 L 223.800 87.908 219.433 87.908 C 214.637 87.908,213.907 87.605,214.360 85.802 C 214.602 84.838,214.609 84.837,219.201 84.837 L 223.800 84.837 223.800 86.372 M223.719 93.762 C 223.846 97.604,223.818 97.627,221.511 95.575 C 219.392 93.689,219.273 93.690,217.296 95.609 C 214.994 97.843,214.422 97.573,214.283 94.185 C 214.125 90.314,214.336 90.157,219.522 90.295 L 223.608 90.403 223.719 93.762 M178.798 100.666 L 178.901 109.394 179.842 109.630 C 180.632 109.828,181.190 109.458,183.305 107.332 C 186.391 104.232,186.164 104.230,189.343 107.384 C 193.233 111.245,193.257 111.205,193.385 100.673 C 193.505 90.859,192.999 91.761,198.394 91.752 C 203.520 91.743,203.071 90.403,203.071 105.727 L 203.071 118.912 202.207 119.144 C 201.075 119.447,170.686 119.456,169.897 119.153 C 168.970 118.797,168.978 93.265,169.906 92.337 C 170.409 91.834,171.268 91.741,174.608 91.830 L 178.695 91.939 178.798 100.666 M190.835 93.042 C 191.770 95.095,190.874 95.585,186.180 95.585 C 181.564 95.585,180.880 95.228,181.414 93.098 C 181.784 91.625,190.166 91.575,190.835 93.042 M190.710 98.349 C 190.979 98.618,191.171 99.905,191.171 101.432 C 191.171 104.743,190.583 105.121,188.536 103.122 C 186.701 101.330,185.577 101.318,183.877 103.071 C 181.812 105.201,181.190 104.788,181.190 101.287 C 181.190 98.004,181.357 97.889,186.117 97.889 C 188.819 97.889,190.409 98.048,190.710 98.349 M216.122 111.518 L 214.035 113.630 214.874 114.468 C 215.681 115.276,215.740 115.281,216.469 114.621 C 217.862 113.361,218.042 114.123,218.042 121.261 L 218.042 128.082 219.194 127.913 L 220.345 127.744 220.345 120.878 C 220.345 117.101,220.480 114.012,220.644 114.012 C 220.808 114.012,221.334 114.286,221.812 114.621 C 222.501 115.103,222.798 115.133,223.241 114.766 C 224.102 114.051,223.926 113.595,221.950 111.420 C 219.537 108.766,218.828 108.778,216.122 111.518 M178.887 114.779 L 178.887 115.948 186.084 115.843 L 193.282 115.739 193.282 114.779 L 193.282 113.820 186.084 113.715 L 178.887 113.611 178.887 114.779 M40.691 118.618 C 40.691 118.829,40.518 119.002,40.307 119.002 C 40.096 119.002,39.923 119.347,39.923 119.770 C 39.923 120.192,39.750 120.537,39.539 120.537 C 39.001 120.537,39.061 119.461,39.635 118.808 C 40.201 118.166,40.691 118.078,40.691 118.618 M172.657 130.488 C 172.790 141.032,173.039 141.414,177.189 137.428 C 180.144 134.590,180.224 134.591,182.981 137.439 C 184.708 139.223,185.441 139.729,186.180 139.646 L 187.140 139.539 187.244 131.112 C 187.319 124.958,187.475 122.604,187.820 122.385 C 188.442 121.989,201.971 121.995,202.595 122.392 C 202.975 122.633,203.057 126.978,202.979 142.827 L 202.879 162.956 180.657 163.055 C 164.564 163.127,158.291 163.034,157.913 162.720 C 157.366 162.266,157.092 124.063,157.626 122.672 C 157.833 122.132,158.761 122.069,165.207 122.161 L 172.553 122.265 172.657 130.488 M184.837 123.800 L 184.837 125.336 180.998 125.448 C 175.881 125.598,175.432 125.466,175.432 123.821 C 175.432 122.193,175.630 122.133,180.806 122.207 L 184.837 122.265 184.837 123.800 M184.949 131.250 C 185.085 135.158,184.824 135.505,183.027 133.810 C 181.722 132.579,180.378 131.670,179.863 131.670 C 179.739 131.670,178.872 132.376,177.936 133.239 C 175.788 135.219,175.432 134.976,175.432 131.532 C 175.432 127.817,175.478 127.785,180.607 127.915 L 184.837 128.023 184.949 131.250 M219.489 144.201 C 219.618 154.806,219.625 154.818,223.351 151.120 C 226.444 148.051,226.577 148.036,228.997 150.498 C 233.760 155.341,234.124 154.906,234.254 144.201 L 234.357 135.701 241.176 135.596 L 247.994 135.491 247.894 149.223 L 247.793 162.956 226.679 162.956 L 205.566 162.956 205.459 150.096 C 205.321 133.511,204.359 135.469,212.582 135.596 L 219.386 135.701 219.489 144.201 M231.075 136.061 C 231.327 136.365,231.478 137.099,231.410 137.693 L 231.286 138.772 226.902 138.881 C 222.371 138.994,221.900 138.851,221.887 137.359 C 221.871 135.566,229.741 134.454,231.075 136.061 M230.871 141.500 C 231.534 141.754,231.808 148.560,231.155 148.560 C 230.978 148.560,230.009 147.783,229.004 146.833 C 226.753 144.707,226.713 144.707,224.393 146.837 C 222.134 148.911,221.895 148.720,221.887 144.837 C 221.882 142.605,222.010 141.997,222.553 141.681 C 223.277 141.260,229.870 141.116,230.871 141.500 M170.313 145.361 C 169.677 145.998,170.047 152.271,170.760 152.916 C 172.013 154.049,188.995 153.855,189.805 152.698 C 190.500 151.706,190.637 147.028,190.006 145.848 C 189.602 145.095,171.039 144.636,170.313 145.361 M181.351 147.642 C 182.077 147.921,182.179 150.105,181.497 150.787 C 180.867 151.417,173.451 151.417,172.821 150.787 C 172.325 150.290,172.218 148.994,172.594 148.016 C 172.834 147.390,179.907 147.088,181.351 147.642 M187.646 148.873 C 187.799 150.463,187.120 151.321,185.829 151.171 C 184.810 151.053,184.268 149.330,184.807 147.924 C 185.275 146.703,187.510 147.451,187.646 148.873 M242.226 152.399 C 242.226 153.423,242.354 153.551,243.378 153.551 C 244.402 153.551,244.530 153.423,244.530 152.399 C 244.530 151.376,244.402 151.248,243.378 151.248 C 242.354 151.248,242.226 151.376,242.226 152.399 M377.824 155.470 C 377.824 156.209,377.903 156.512,378.000 156.142 C 378.096 155.773,378.096 155.168,378.000 154.798 C 377.903 154.429,377.824 154.731,377.824 155.470 M170.205 157.559 C 169.468 159.479,169.541 159.494,180.331 159.603 L 190.403 159.706 190.403 158.589 C 190.403 157.021,190.302 157.006,179.803 157.006 C 171.983 157.006,170.382 157.098,170.205 157.559 M221.264 157.550 C 220.558 159.391,220.919 159.501,227.644 159.501 L 233.973 159.501 233.973 158.349 L 233.973 157.198 227.727 157.092 C 222.524 157.004,221.444 157.081,221.264 157.550 M242.499 157.245 C 241.650 158.094,242.240 159.693,243.402 159.693 C 244.498 159.693,244.570 159.608,244.458 158.445 C 244.341 157.227,243.210 156.534,242.499 157.245 M379.277 165.140 C 379.273 165.920,379.443 166.664,379.655 166.795 C 380.150 167.101,380.150 165.066,379.655 164.299 C 379.377 163.870,379.281 164.084,379.277 165.140 M188.484 194.619 C 188.484 196.937,188.313 200.003,188.105 201.432 C 187.351 206.603,186.548 219.538,186.556 226.376 L 186.564 233.366 187.568 234.297 C 189.630 236.209,192.968 235.844,192.509 233.757 C 192.194 232.322,192.850 232.040,193.949 233.139 C 198.253 237.443,205.883 236.051,209.215 230.353 C 209.501 229.863,211.523 230.959,212.668 232.225 C 214.469 234.216,219.578 233.082,219.578 230.691 C 219.578 230.279,219.750 229.942,219.962 229.942 C 220.173 229.942,220.345 229.717,220.345 229.442 C 220.345 229.167,220.950 228.355,221.689 227.639 C 222.428 226.923,223.033 226.068,223.033 225.740 C 223.033 225.411,223.810 224.308,224.760 223.287 C 225.710 222.267,226.488 221.102,226.488 220.697 C 226.488 219.466,227.154 219.876,227.415 221.268 C 227.692 222.746,227.325 225.631,226.821 225.943 C 226.638 226.056,226.488 226.515,226.488 226.963 C 226.488 227.727,225.996 229.539,225.314 231.286 C 225.149 231.708,224.921 232.602,224.806 233.273 C 224.692 233.944,224.226 235.326,223.772 236.344 C 223.317 237.363,222.556 239.060,222.080 240.115 C 221.604 241.171,221.093 242.594,220.943 243.278 C 220.793 243.962,220.516 244.616,220.328 244.732 C 220.140 244.848,219.470 246.027,218.838 247.350 C 218.206 248.674,217.337 250.076,216.906 250.466 C 216.475 250.856,216.123 251.472,216.123 251.836 C 216.123 252.200,215.852 252.722,215.522 252.996 C 215.191 253.270,214.688 253.939,214.404 254.483 C 214.120 255.026,213.011 256.334,211.939 257.390 C 209.372 259.917,209.716 261.420,212.862 261.420 C 214.825 261.420,221.113 255.488,221.113 253.636 C 221.113 253.338,221.429 252.808,221.816 252.458 C 222.202 252.109,223.074 250.743,223.755 249.424 C 224.435 248.104,225.141 246.766,225.325 246.449 C 226.170 244.992,228.791 239.181,228.791 238.765 C 228.791 238.212,229.909 234.644,230.380 233.690 C 230.562 233.324,230.710 232.501,230.710 231.862 C 230.710 231.223,230.862 230.400,231.047 230.033 C 232.108 227.933,233.493 220.630,233.183 218.771 C 232.417 214.170,231.327 212.552,228.496 211.812 C 227.669 211.596,225.720 213.420,225.720 214.411 C 225.720 214.590,225.306 215.179,224.800 215.718 C 224.295 216.257,223.393 217.643,222.797 218.798 C 221.862 220.609,220.194 222.655,216.620 226.374 C 215.361 227.685,214.858 227.501,215.084 225.816 C 215.366 223.716,216.583 218.866,217.276 217.083 C 219.055 212.505,219.110 211.071,217.562 209.608 C 215.761 207.904,214.624 208.139,213.900 210.365 C 213.592 211.315,213.188 212.392,213.003 212.759 C 212.819 213.125,212.668 213.763,212.668 214.176 C 212.668 214.588,212.509 215.024,212.315 215.144 C 212.121 215.264,211.776 216.267,211.547 217.374 C 210.255 223.637,210.029 224.113,207.323 226.273 C 205.934 227.381,204.561 228.573,204.272 228.923 C 203.982 229.273,203.550 229.562,203.312 229.567 C 203.074 229.572,202.447 229.913,201.919 230.326 C 201.187 230.899,200.348 231.079,198.377 231.086 L 195.795 231.094 195.052 229.555 C 194.643 228.709,194.191 227.325,194.049 226.480 L 193.789 224.943 195.486 225.007 C 196.420 225.043,197.688 224.807,198.304 224.483 C 198.920 224.159,199.942 223.659,200.576 223.371 C 205.397 221.182,210.530 216.436,210.168 214.503 C 209.848 212.801,208.654 210.798,207.771 210.485 C 207.403 210.355,206.821 210.008,206.479 209.715 C 204.548 208.064,197.868 209.240,197.048 211.375 C 196.937 211.664,196.626 211.900,196.357 211.900 C 195.853 211.900,193.486 214.332,192.805 215.548 C 192.110 216.791,191.607 215.808,191.771 213.527 C 191.858 212.315,192.023 209.511,192.137 207.294 C 192.251 205.077,192.503 202.474,192.698 201.510 C 194.239 193.878,193.378 190.403,189.947 190.403 L 188.484 190.403 188.484 194.619 M123.878 194.317 C 123.519 194.943,123.225 195.703,123.225 196.006 C 123.225 196.308,123.072 196.855,122.885 197.222 C 122.285 198.403,121.793 199.757,121.110 202.111 C 120.743 203.378,120.291 204.715,120.106 205.081 C 119.921 205.448,119.766 206.052,119.761 206.425 C 119.739 208.207,118.069 209.109,114.107 209.480 C 111.715 209.703,111.698 209.766,113.466 211.831 C 114.474 213.009,115.126 213.436,115.920 213.436 C 117.415 213.436,117.922 216.571,116.694 218.234 C 116.402 218.631,116.144 219.790,115.540 223.417 C 115.347 224.578,115.078 226.176,114.942 226.968 C 114.422 230.005,117.279 234.870,119.983 235.548 C 121.812 236.007,126.462 231.782,126.500 229.626 C 126.514 228.871,127.146 228.137,128.423 227.393 C 128.957 227.082,129.147 226.611,129.077 225.762 C 129.024 225.105,129.153 224.568,129.365 224.568 C 129.946 224.568,129.828 222.897,129.187 222.050 C 128.877 221.641,128.618 221.513,128.611 221.767 C 128.604 222.021,127.994 222.516,127.255 222.866 C 126.516 223.217,125.904 223.700,125.894 223.940 C 125.856 224.864,120.267 230.452,119.626 230.206 C 118.930 229.939,118.752 227.839,119.392 227.443 C 119.607 227.311,119.695 227.060,119.587 226.887 C 119.480 226.714,119.758 224.955,120.204 222.979 C 120.650 221.003,121.123 218.436,121.256 217.274 C 121.792 212.584,122.727 211.915,130.326 210.788 C 131.593 210.600,133.407 210.171,134.357 209.835 C 135.307 209.499,136.957 209.222,138.023 209.219 C 139.765 209.214,142.027 208.560,142.030 208.061 C 142.044 205.578,133.451 204.625,128.548 206.565 C 126.871 207.229,124.973 206.866,124.829 205.854 C 124.762 205.379,124.859 204.990,125.045 204.990 C 125.231 204.990,125.611 204.101,125.889 203.014 C 126.168 201.928,126.805 200.435,127.305 199.698 C 128.914 197.327,128.158 194.763,125.510 193.605 C 124.627 193.219,124.469 193.288,123.878 194.317 M257.300 211.055 C 255.621 212.701,253.939 214.517,253.564 215.090 C 253.188 215.663,252.325 216.395,251.645 216.718 C 250.897 217.073,250.077 217.942,249.568 218.921 C 249.106 219.810,248.391 220.969,247.980 221.497 C 244.202 226.346,250.112 237.347,255.510 235.515 C 257.475 234.848,262.566 231.558,262.586 230.942 C 262.651 228.946,265.643 228.093,265.643 230.070 C 265.643 230.321,266.244 231.216,266.979 232.058 C 267.714 232.900,268.319 233.688,268.323 233.809 C 268.348 234.571,271.983 235.778,273.590 235.558 C 278.205 234.925,286.472 224.265,286.446 218.980 C 286.418 213.167,279.602 208.289,275.350 211.037 C 274.606 211.518,274.346 211.509,273.265 210.970 C 271.989 210.334,269.866 211.530,269.866 212.885 C 269.866 213.136,269.603 213.559,269.283 213.825 C 268.772 214.249,268.284 215.148,267.407 217.274 C 267.277 217.591,266.839 218.369,266.435 219.002 C 266.030 219.635,265.686 220.631,265.671 221.214 C 265.656 221.798,265.483 222.575,265.287 222.942 C 265.091 223.308,264.838 223.910,264.724 224.278 C 264.610 224.647,263.827 225.224,262.983 225.562 C 262.140 225.899,261.348 226.496,261.223 226.888 C 261.079 227.342,260.779 227.516,260.393 227.368 C 260.041 227.233,259.642 227.400,259.434 227.772 C 259.239 228.121,258.666 228.407,258.161 228.407 C 257.656 228.407,257.149 228.559,257.034 228.745 C 256.722 229.250,253.192 230.326,251.847 230.326 C 250.385 230.326,250.127 227.465,251.391 225.252 C 253.258 221.980,253.570 221.502,253.839 221.500 C 253.997 221.498,254.135 221.281,254.144 221.017 C 254.178 220.114,258.156 216.182,260.038 215.192 C 262.378 213.962,262.779 213.960,263.578 215.181 C 264.662 216.835,266.482 215.278,265.619 213.436 C 265.470 213.119,265.133 212.396,264.869 211.829 C 262.769 207.322,261.266 207.168,257.300 211.055 M388.040 210.000 C 388.007 211.151,388.014 212.481,388.055 212.956 C 388.095 213.431,387.950 213.820,387.730 213.820 C 387.511 213.820,387.332 213.987,387.332 214.191 C 387.332 214.396,387.569 214.472,387.858 214.361 C 388.480 214.123,388.992 208.843,388.448 208.273 C 388.237 208.052,388.076 208.735,388.040 210.000 M100.700 208.867 C 100.030 209.061,99.080 209.554,98.589 209.963 C 95.319 212.686,94.552 213.442,93.137 215.342 C 90.291 219.162,90.238 219.554,92.042 223.417 C 93.276 226.060,94.326 227.255,95.414 227.255 C 95.879 227.255,96.842 227.489,97.554 227.774 C 98.266 228.060,99.171 228.408,99.565 228.547 C 100.554 228.898,99.150 229.968,96.737 230.704 C 95.787 230.993,94.750 231.439,94.434 231.694 C 94.117 231.949,93.081 232.544,92.131 233.016 C 87.577 235.277,86.898 235.669,86.217 236.425 C 85.815 236.871,85.201 237.236,84.854 237.236 C 82.963 237.236,82.889 238.906,84.697 240.813 L 86.085 242.278 87.113 241.292 C 87.679 240.750,88.348 240.307,88.601 240.307 C 88.853 240.307,89.060 240.134,89.060 239.923 C 89.060 239.712,89.224 239.539,89.424 239.539 C 89.625 239.539,90.557 239.021,91.495 238.388 C 92.434 237.754,93.466 237.236,93.790 237.236 C 94.114 237.236,94.607 237.018,94.886 236.752 C 95.690 235.985,97.442 235.317,98.652 235.317 C 99.263 235.317,99.870 235.144,100.000 234.933 C 100.130 234.722,100.638 234.549,101.127 234.549 C 101.617 234.549,102.232 234.290,102.495 233.973 C 102.758 233.656,103.197 233.397,103.470 233.397 C 103.743 233.397,104.024 233.257,104.095 233.085 C 104.165 232.912,104.914 232.501,105.758 232.170 C 107.481 231.495,107.944 230.058,107.099 228.015 C 106.119 225.650,104.281 224.748,99.616 224.345 C 96.501 224.076,92.937 222.377,94.047 221.691 C 94.260 221.559,94.434 221.160,94.435 220.803 C 94.438 218.847,100.608 213.924,103.647 213.452 C 105.293 213.197,105.349 211.738,103.790 209.693 C 102.779 208.365,102.600 208.317,100.700 208.867 M314.523 209.581 C 314.136 210.040,313.085 211.221,312.188 212.205 C 311.291 213.190,310.557 214.274,310.557 214.615 C 310.557 214.957,310.211 215.549,309.789 215.931 C 309.367 216.313,309.021 216.788,309.021 216.986 C 309.021 217.562,307.612 219.192,307.345 218.925 C 307.211 218.791,307.102 218.301,307.102 217.835 C 307.102 215.388,305.368 213.013,302.386 211.374 C 299.857 209.985,297.505 210.915,297.505 213.305 C 297.505 213.788,297.068 214.922,296.534 215.825 C 296.000 216.728,295.229 218.201,294.820 219.098 C 293.685 221.590,292.917 220.641,292.902 216.726 C 292.898 215.488,292.120 213.052,291.729 213.052 C 291.593 213.052,290.980 212.620,290.367 212.093 C 288.321 210.333,288.292 210.429,288.292 218.995 C 288.292 230.275,288.918 233.723,291.149 234.727 C 294.251 236.123,294.235 236.134,294.859 232.208 C 295.108 230.645,295.604 229.021,295.961 228.599 C 296.318 228.177,296.917 227.140,297.291 226.296 C 297.666 225.451,298.213 224.258,298.506 223.645 C 298.800 223.032,299.040 222.390,299.040 222.217 C 299.040 221.414,301.516 218.445,301.882 218.811 C 302.118 219.047,302.243 221.712,302.200 225.626 C 302.125 232.630,302.135 232.667,304.415 234.056 C 305.941 234.986,307.102 234.569,307.102 233.090 C 307.102 232.650,307.257 232.195,307.447 232.077 C 307.637 231.960,307.793 231.296,307.793 230.602 C 307.793 229.834,308.333 228.445,309.174 227.050 C 309.933 225.791,310.555 224.556,310.556 224.306 C 310.556 224.056,310.918 223.737,311.359 223.597 C 311.940 223.413,312.105 223.123,311.955 222.551 C 311.831 222.077,312.059 221.365,312.523 220.775 C 313.091 220.052,313.236 219.464,313.067 218.562 C 312.802 217.154,313.440 216.487,314.138 217.442 C 314.545 217.998,314.682 217.927,315.330 216.830 C 315.836 215.973,315.923 215.544,315.613 215.441 C 315.365 215.359,315.163 215.129,315.163 214.930 C 315.163 214.732,315.586 214.846,316.102 215.185 C 316.999 215.772,317.048 216.017,317.212 220.664 C 317.428 226.771,317.702 228.286,318.873 229.846 C 320.382 231.858,322.512 230.975,321.912 228.587 C 321.788 228.091,321.870 227.573,322.094 227.434 C 322.318 227.296,322.407 226.724,322.291 226.163 C 322.176 225.603,321.987 222.466,321.872 219.194 C 321.669 213.407,321.634 213.208,320.598 211.925 C 318.316 209.099,315.760 208.113,314.523 209.581 M151.645 209.956 C 151.426 210.364,151.248 211.045,151.248 211.468 C 151.248 212.877,150.426 212.775,148.782 211.161 L 147.155 209.565 145.300 210.061 C 142.542 210.798,137.583 215.624,134.265 220.801 C 131.266 225.478,131.293 226.756,134.494 231.564 C 135.157 232.561,135.864 233.382,136.063 233.387 C 136.263 233.393,136.886 233.838,137.449 234.377 C 138.273 235.166,138.898 235.371,140.669 235.433 L 142.867 235.509 144.742 233.397 C 145.773 232.236,146.629 231.113,146.644 230.902 C 146.660 230.691,147.183 229.920,147.808 229.189 C 148.433 228.458,148.944 227.638,148.944 227.366 C 148.944 227.094,149.290 226.871,149.712 226.871 C 150.413 226.871,150.480 227.127,150.480 229.802 C 150.480 234.378,151.775 237.620,153.604 237.620 C 154.920 237.620,155.177 236.292,154.858 231.148 C 154.692 228.479,154.619 226.123,154.695 225.912 C 154.841 225.506,155.098 223.519,155.876 216.772 L 156.354 212.624 154.681 210.918 C 152.834 209.036,152.238 208.847,151.645 209.956 M158.302 210.924 C 158.092 211.473,158.268 214.110,158.758 217.770 C 158.911 218.908,158.826 220.043,158.534 220.746 C 158.162 221.646,158.163 222.001,158.541 222.457 C 158.918 222.911,158.920 223.269,158.553 224.157 C 158.103 225.243,158.164 227.454,158.757 231.478 C 159.389 235.770,164.683 237.109,164.683 232.976 C 164.683 231.935,164.832 230.784,165.013 230.417 C 165.194 230.050,165.638 228.800,166.000 227.639 C 166.889 224.780,169.132 220.224,170.065 219.379 C 170.483 219.001,170.825 218.372,170.825 217.983 C 170.825 217.593,170.998 217.274,171.209 217.274 C 171.420 217.274,171.593 216.959,171.593 216.574 C 171.593 215.733,173.128 214.203,173.970 214.203 C 175.478 214.203,175.591 215.821,174.859 226.871 C 174.540 231.683,175.147 232.793,177.970 232.559 C 180.155 232.379,180.299 231.810,180.262 223.489 L 180.230 216.254 179.070 214.378 C 176.721 210.579,170.478 208.900,168.455 211.523 C 167.964 212.160,167.174 213.178,166.699 213.785 C 166.224 214.393,165.835 215.167,165.835 215.506 C 165.835 215.845,165.674 216.123,165.478 216.123 C 165.281 216.123,165.065 216.475,164.998 216.906 C 164.749 218.494,164.102 217.786,163.916 215.722 C 163.587 212.075,159.275 208.390,158.302 210.924 M204.990 213.621 C 204.990 213.909,204.459 214.547,203.809 215.038 C 203.160 215.529,202.199 216.322,201.676 216.799 C 200.915 217.493,198.181 219.113,196.449 219.895 C 196.291 219.967,196.161 219.656,196.161 219.204 C 196.161 218.283,199.614 214.759,200.913 214.354 C 201.361 214.214,201.814 213.991,201.919 213.859 C 202.678 212.906,204.990 212.727,204.990 213.621 M150.024 215.065 C 150.094 215.433,149.793 216.237,149.356 216.852 C 148.918 217.466,148.560 218.312,148.560 218.732 C 148.560 219.152,148.302 219.595,147.985 219.716 C 147.669 219.838,146.991 220.850,146.479 221.965 C 145.968 223.080,145.018 224.500,144.368 225.120 C 143.718 225.740,143.186 226.566,143.186 226.956 C 143.186 228.412,139.150 231.334,137.561 231.028 C 136.334 230.792,136.033 228.597,136.983 226.816 C 137.439 225.962,137.812 224.854,137.812 224.353 C 137.812 223.837,138.143 223.266,138.578 223.033 C 139.000 222.808,139.694 221.938,140.122 221.100 C 140.549 220.263,141.158 219.578,141.474 219.578 C 141.791 219.578,142.598 218.800,143.268 217.850 C 143.938 216.900,144.634 216.123,144.816 216.123 C 144.998 216.123,145.785 215.686,146.565 215.152 C 148.152 214.066,149.827 214.024,150.024 215.065 M283.082 214.807 C 283.858 215.583,283.845 215.773,282.873 217.950 C 282.426 218.951,281.829 220.297,281.547 220.942 C 281.265 221.586,280.680 222.433,280.248 222.824 C 279.816 223.216,279.457 223.725,279.451 223.956 C 279.437 224.437,274.727 229.559,274.298 229.559 C 274.142 229.559,273.556 229.878,272.996 230.268 C 269.489 232.708,268.133 232.097,268.461 228.223 C 268.966 222.260,273.268 213.998,274.978 215.707 C 275.607 216.336,276.219 216.217,277.772 215.163 C 279.435 214.034,282.129 213.853,283.082 214.807 M387.207 216.638 C 387.033 217.660,386.990 218.596,387.111 218.717 C 387.570 219.176,387.757 218.446,387.643 216.644 L 387.524 214.779 387.207 216.638 M386.468 220.565 C 386.310 220.726,386.180 221.468,386.180 222.214 C 386.180 223.179,386.299 223.451,386.592 223.158 C 386.819 222.932,386.948 222.190,386.880 221.509 C 386.812 220.829,386.627 220.404,386.468 220.565 M385.446 225.931 C 385.478 227.429,385.483 227.434,385.820 226.305 C 386.030 225.598,386.018 225.020,385.787 224.788 C 385.544 224.546,385.424 224.947,385.446 225.931 M384.645 229.536 C 384.645 230.182,384.711 230.710,384.792 230.710 C 385.118 230.710,385.287 228.758,384.977 228.567 C 384.794 228.454,384.645 228.890,384.645 229.536 M381.847 239.539 C 381.736 239.961,381.803 240.403,381.994 240.521 C 382.185 240.640,382.342 240.294,382.342 239.754 C 382.342 238.578,382.123 238.483,381.847 239.539 M135.125 286.587 C 132.196 288.184,132.509 292.514,135.554 292.514 C 137.619 292.514,140.209 294.474,139.983 295.866 C 139.609 298.173,136.462 298.808,134.685 296.936 C 133.677 295.873,132.821 295.682,132.821 296.519 C 132.821 298.378,138.131 299.542,140.256 298.149 C 143.194 296.224,140.287 291.747,136.099 291.747 C 135.160 291.747,133.979 289.880,134.323 288.939 C 135.028 287.008,137.521 286.673,139.243 288.277 C 140.091 289.067,141.267 289.333,141.267 288.735 C 141.267 287.121,136.928 285.604,135.125 286.587 M279.628 286.559 C 275.787 288.275,277.792 293.282,282.320 293.282 C 283.140 293.282,284.837 294.825,284.837 295.571 C 284.837 298.104,280.126 298.998,278.745 296.727 C 278.183 295.803,277.952 295.669,277.617 296.072 C 275.854 298.197,282.854 299.932,285.012 297.905 C 287.239 295.812,285.490 292.841,281.517 291.968 C 279.114 291.441,277.858 289.080,279.330 287.859 C 280.349 287.013,283.228 287.248,283.918 288.233 C 284.473 289.026,285.605 289.381,285.605 288.761 C 285.605 288.013,284.373 286.828,283.407 286.645 C 282.821 286.535,281.996 286.352,281.574 286.238 C 281.152 286.125,280.276 286.270,279.628 286.559 M248.770 286.640 C 246.297 287.139,243.006 292.533,244.581 293.506 C 244.764 293.619,244.914 294.049,244.914 294.462 C 244.914 299.294,253.648 300.484,256.000 295.971 C 257.875 292.374,255.908 286.756,252.774 286.756 C 252.304 286.756,251.423 286.687,250.816 286.603 C 250.209 286.519,249.288 286.536,248.770 286.640 M107.102 292.706 L 107.102 298.656 110.298 298.656 C 114.983 298.656,116.841 296.035,114.148 293.224 C 113.174 292.208,113.159 292.126,113.764 291.201 C 115.412 288.686,113.708 286.756,109.840 286.756 L 107.102 286.756 107.102 292.706 M121.090 287.255 C 120.985 287.529,120.947 290.163,121.006 293.109 L 121.113 298.464 124.280 298.576 C 126.289 298.647,127.447 298.541,127.447 298.288 C 127.447 298.053,126.426 297.889,124.959 297.889 C 122.188 297.889,121.876 297.544,122.141 294.775 L 122.265 293.474 124.664 293.360 C 127.862 293.207,128.181 292.131,125.029 292.131 C 122.676 292.131,122.073 291.690,122.073 289.974 C 122.073 287.753,122.326 287.524,124.778 287.524 C 126.010 287.524,127.125 287.351,127.255 287.140 C 127.406 286.896,126.360 286.756,124.387 286.756 C 122.195 286.756,121.225 286.903,121.090 287.255 M146.084 287.113 C 146.285 287.309,147.054 287.525,147.793 287.593 L 149.136 287.716 149.243 293.215 C 149.390 300.786,150.206 300.683,150.480 293.059 L 150.672 287.716 151.823 287.590 C 154.735 287.273,153.427 286.756,149.712 286.756 C 147.249 286.756,145.859 286.893,146.084 287.113 M165.067 286.901 C 165.067 287.139,165.928 290.307,166.802 293.282 C 167.143 294.443,167.511 295.739,167.620 296.161 C 168.319 298.870,169.920 299.491,170.587 297.313 C 170.781 296.679,171.160 295.643,171.430 295.010 C 171.699 294.376,172.126 293.037,172.378 292.035 C 172.984 289.621,174.664 289.701,174.664 292.143 C 174.664 292.699,174.787 293.278,174.938 293.428 C 175.089 293.579,175.483 294.774,175.814 296.084 C 176.702 299.595,178.173 299.770,179.085 296.473 C 179.424 295.246,179.851 293.896,180.033 293.474 C 180.381 292.668,180.722 291.245,181.068 289.152 C 181.182 288.464,181.429 287.806,181.616 287.690 C 182.229 287.311,181.976 286.756,181.190 286.756 C 180.686 286.756,180.422 287.012,180.422 287.501 C 180.422 287.911,180.250 288.353,180.038 288.484 C 179.827 288.614,179.655 289.392,179.655 290.211 C 179.655 291.031,179.482 291.808,179.271 291.939 C 179.060 292.069,178.887 292.513,178.887 292.926 C 178.887 293.339,178.727 293.976,178.531 294.343 C 178.335 294.710,178.081 295.312,177.967 295.681 C 177.588 296.908,177.046 296.379,176.395 294.146 C 176.041 292.932,175.594 291.639,175.400 291.272 C 175.206 290.905,175.048 290.181,175.048 289.663 C 175.048 289.145,174.875 288.614,174.664 288.484 C 174.453 288.353,174.280 287.911,174.280 287.501 C 174.280 286.385,173.017 286.588,172.457 287.795 C 172.193 288.364,171.977 289.142,171.977 289.525 C 171.977 289.908,171.816 290.522,171.618 290.888 C 171.421 291.255,170.956 292.634,170.586 293.954 C 170.215 295.274,169.812 296.353,169.688 296.353 C 169.275 296.353,168.202 293.877,167.762 291.909 C 167.045 288.703,166.329 286.956,165.680 286.824 C 165.343 286.756,165.067 286.791,165.067 286.901 M190.275 287.012 C 190.134 287.153,190.019 287.661,190.019 288.141 C 190.019 288.621,189.846 289.121,189.635 289.251 C 189.424 289.382,189.251 289.900,189.251 290.403 C 189.251 290.906,189.102 291.410,188.920 291.522 C 188.738 291.635,188.364 292.552,188.089 293.560 C 187.814 294.568,187.358 295.734,187.076 296.151 C 186.431 297.104,186.397 298.776,187.028 298.566 C 187.282 298.481,187.771 297.905,188.113 297.286 C 188.705 296.216,188.875 296.156,191.630 296.050 L 194.524 295.939 195.169 297.298 C 195.797 298.622,196.929 299.167,196.929 298.146 C 196.929 297.865,196.498 296.785,195.971 295.746 C 195.444 294.708,195.012 293.553,195.011 293.181 C 195.010 292.809,194.849 292.204,194.652 291.837 C 194.456 291.471,193.906 290.178,193.430 288.964 C 192.586 286.811,191.283 286.004,190.275 287.012 M202.303 292.706 C 202.303 298.401,202.336 298.656,203.071 298.656 C 203.766 298.656,203.839 298.401,203.839 295.969 L 203.839 293.282 204.943 293.282 C 206.174 293.282,206.395 293.496,207.715 295.969 C 208.843 298.082,209.362 298.656,210.145 298.656 C 210.759 298.656,210.986 298.058,210.461 297.825 C 209.138 297.237,207.434 292.966,208.379 292.608 C 209.562 292.161,210.029 291.381,210.050 289.815 C 210.085 287.278,209.310 286.756,205.507 286.756 L 202.303 286.756 202.303 292.706 M216.507 292.706 L 216.507 298.656 219.792 298.656 C 221.885 298.656,222.992 298.517,222.841 298.273 C 222.710 298.061,221.670 297.889,220.528 297.889 C 218.235 297.889,217.658 297.369,217.658 295.304 C 217.658 293.726,218.307 293.282,220.614 293.282 C 222.167 293.282,222.649 293.146,222.649 292.706 C 222.649 292.266,222.163 292.131,220.584 292.131 C 218.085 292.131,217.569 291.632,217.731 289.376 L 217.850 287.716 220.154 287.599 C 223.874 287.410,223.636 286.756,219.846 286.756 L 216.507 286.756 216.507 292.706 M229.175 292.738 C 229.175 299.107,229.919 301.175,230.326 295.939 L 230.518 293.474 233.781 293.474 L 237.044 293.474 237.158 296.065 C 237.243 298.024,237.407 298.656,237.829 298.656 C 238.294 298.656,238.388 297.652,238.388 292.674 C 238.388 286.305,237.644 284.237,237.236 289.473 L 237.044 291.939 234.561 292.055 C 230.465 292.247,230.326 292.155,230.326 289.244 C 230.326 287.289,230.203 286.756,229.750 286.756 C 229.263 286.756,229.175 287.677,229.175 292.738 M262.572 291.153 C 262.572 295.862,262.902 297.130,264.379 298.097 C 265.813 299.037,268.758 298.951,270.196 297.927 L 271.401 297.069 271.401 291.884 C 271.401 287.154,271.342 286.711,270.729 286.829 C 270.139 286.942,270.045 287.540,269.952 291.751 C 269.834 297.106,269.462 297.862,266.943 297.880 C 264.402 297.898,263.724 296.513,263.724 291.310 C 263.724 287.518,263.627 286.756,263.148 286.756 C 262.669 286.756,262.572 287.501,262.572 291.153 M292.131 292.706 L 292.131 298.656 295.202 298.656 C 296.993 298.656,298.273 298.496,298.273 298.273 C 298.273 298.056,297.179 297.889,295.758 297.889 L 293.244 297.889 293.359 295.681 L 293.474 293.474 295.489 293.358 C 296.902 293.277,297.505 293.082,297.505 292.706 C 297.505 292.331,296.902 292.136,295.489 292.055 L 293.474 291.939 293.359 289.731 L 293.244 287.524 295.544 287.524 C 296.808 287.524,297.950 287.351,298.081 287.140 C 298.231 286.896,297.189 286.756,295.224 286.756 L 292.131 286.756 292.131 292.706 M112.404 288.307 C 114.105 289.891,112.617 292.243,110.033 292.054 L 108.445 291.939 108.330 289.731 L 108.215 287.524 109.889 287.524 C 111.044 287.524,111.824 287.767,112.404 288.307 M208.593 288.470 C 209.933 290.516,208.604 292.234,205.821 292.054 L 204.031 291.939 203.911 290.263 C 203.732 287.777,203.933 287.524,206.086 287.524 C 207.668 287.524,208.073 287.677,208.593 288.470 M252.795 287.964 C 254.740 288.668,255.942 291.660,255.265 294.114 C 253.795 299.435,246.541 298.948,245.858 293.481 C 245.309 289.092,248.624 286.456,252.795 287.964 M192.706 289.797 C 192.706 290.188,192.964 291.002,193.280 291.607 C 194.554 294.049,194.141 294.818,191.555 294.818 C 188.881 294.818,188.777 294.598,189.985 291.510 C 190.389 290.479,190.818 289.326,190.939 288.947 C 191.229 288.041,192.706 288.751,192.706 289.797 M113.408 293.885 C 115.064 295.541,113.177 297.889,110.190 297.889 L 108.253 297.889 108.253 295.585 L 108.253 293.282 110.529 293.282 C 112.086 293.282,112.996 293.473,113.408 293.885 M162.764 362.764 C 164.136 363.203,164.683 363.203,164.683 362.764 C 164.683 362.553,164.036 362.397,163.244 362.418 C 161.959 362.452,161.907 362.490,162.764 362.764 M166.027 363.506 C 166.449 363.701,167.259 363.874,167.828 363.889 C 168.396 363.903,168.967 364.088,169.098 364.299 C 169.228 364.511,169.958 364.683,170.720 364.683 C 172.453 364.683,172.130 364.315,169.977 363.836 C 167.425 363.268,165.093 363.073,166.027 363.506 M173.328 365.055 C 173.173 365.306,173.750 365.451,174.897 365.451 C 176.977 365.451,177.004 365.280,174.982 364.914 C 174.147 364.764,173.473 364.821,173.328 365.055 M177.781 365.787 C 177.417 366.026,177.834 366.187,179.125 366.305 C 180.155 366.399,181.162 366.332,181.363 366.155 C 181.572 365.972,181.326 365.833,180.787 365.830 C 180.270 365.827,179.501 365.738,179.079 365.633 C 178.656 365.527,178.073 365.597,177.781 365.787 M183.685 366.987 C 185.445 367.434,188.568 367.434,188.292 366.987 C 188.161 366.775,186.812 366.623,185.294 366.648 C 183.211 366.682,182.816 366.765,183.685 366.987 M191.939 367.738 C 191.939 367.983,193.156 368.138,195.074 368.138 C 196.798 368.138,198.137 368.075,198.049 367.998 C 197.610 367.614,191.939 367.373,191.939 367.738 " stroke="none" fill-rule="evenodd"/>
    </g
    ></svg>